<svg width="305" height="131" viewBox="0 0 305 131" fill="none" xmlns="http://www.w3.org/2000/svg">
<path d="M120.583 129.338L116.584 116.194H96.4803L92.4809 129.338H79.8828L99.3465 73.8777H113.644L133.188 129.338H120.583ZM113.791 106.374C110.092 94.4649 108.012 87.7294 107.545 86.1606C107.079 84.5985 106.745 83.3636 106.545 82.4557C105.719 85.68 103.339 93.6505 99.4198 106.367H113.791V106.374Z" fill="#0B80C3"/>
<path d="M152.51 129.338H140.819V83.8576H125.848V74.1113H167.488V83.8576H152.51V129.338Z" fill="#0B80C3"/>
<path d="M174.641 129.338V74.1047H186.332V119.665H208.702V129.338H174.641Z" fill="#0B80C3"/>
<path d="M252.356 129.338L248.356 116.194H228.246L224.253 129.338H211.648L231.112 73.8777H245.41L264.947 129.338H252.356ZM245.557 106.374C241.864 94.4649 239.784 87.7294 239.318 86.1606C238.851 84.5985 238.518 83.3636 238.318 82.4557C237.484 85.68 235.112 93.6505 231.185 106.367H245.557V106.374Z" fill="#0B80C3"/>
<path d="M22.3644 52.1423C12.1859 55.2464 6.58014 54.6323 5.54697 52.5963L3.75391 53.5375C4.71376 55.42 7.11339 56.3546 10.6995 56.3546C14.0323 56.3546 18.385 55.5402 23.5575 53.918C23.1509 53.3306 22.7577 52.7365 22.3644 52.1423Z" fill="#A0BAE1"/>
<path d="M35.9634 21.1078C36.6033 20.8074 37.2432 20.5137 37.8765 20.2333C28.7912 9.42566 20.0792 4.63265 15.1133 7.71673L16.1665 9.45904C20.0392 7.05586 27.9447 11.7287 35.9634 21.1078Z" fill="#A0BAE1"/>
<path d="M69.749 18.8983L67.956 19.8395C68.2826 20.487 68.2492 21.3348 67.896 22.3428C65.2164 13.6713 59.6172 7.08262 52.0717 3.76489L51.2718 5.64071C58.3908 8.77152 63.6633 15.0665 66.1162 23.3775C66.2629 23.8782 66.4029 24.3922 66.5295 24.8995C63.8899 28.7313 58.2041 33.838 50.1453 38.9982C49.0122 36.7352 47.759 34.4588 46.3926 32.2025C45.1728 30.1798 43.8863 28.2039 42.5598 26.3281C41.9399 26.5951 41.3134 26.8688 40.6735 27.1558C42.0532 29.1051 43.3997 31.1611 44.6728 33.2706C46.0393 35.5336 47.2924 37.8166 48.4189 40.0796C46.086 41.5148 43.573 42.9501 40.8934 44.3586C37.0873 46.3546 33.2813 48.1102 29.5618 49.5989C29.9684 50.1863 30.3684 50.7537 30.7683 51.3078C34.4011 49.8392 38.1139 48.1236 41.82 46.1743C44.3596 44.8392 46.8792 43.4107 49.3055 41.9154C51.8051 47.209 53.6115 52.3625 54.5247 56.9419C54.9846 59.2383 55.1912 61.2943 55.1712 63.0834C46.2326 71.7816 34.0345 75.106 23.5694 70.5065L22.7695 72.3824C26.2157 73.8977 29.8418 74.6186 33.4812 74.6186C40.9934 74.6186 48.5723 71.5546 54.858 66.1207C54.4647 67.8897 53.7048 69.1714 52.5916 69.859L53.6381 71.6013C55.7712 70.2796 56.9576 67.6494 57.1576 63.9646C60.7571 60.313 63.8232 55.8271 66.0296 50.6469C69.569 42.3693 70.4756 33.4642 68.6692 25.2934C70.169 22.8635 70.6489 20.6606 69.749 18.8983ZM64.1899 49.8392C62.3701 54.0915 59.9505 57.8565 57.1243 61.0407C57.0243 59.6455 56.8243 58.1435 56.5044 56.5347C55.5445 51.735 53.6581 46.3479 51.0319 40.8339C57.7708 36.5282 63.6499 31.8087 67.0628 27.5697C68.2692 34.806 67.2961 42.5696 64.1899 49.8392Z" fill="#A0BAE1"/>
<path d="M37.4276 0C16.7908 0 0 17.0359 0 37.9702C0 58.9046 16.7908 75.9405 37.4276 75.9405C58.0645 75.9405 74.8552 58.9046 74.8552 37.9702C74.8552 17.0359 58.0645 0 37.4276 0ZM63.6436 15.634C61.4439 15.4538 58.7243 15.7008 55.5048 16.3884C48.6792 17.8503 40.1205 21.1747 31.4085 25.7474C26.8492 28.1439 22.4099 30.8141 18.4372 33.5711C16.8508 29.6859 15.6909 25.941 15.0377 22.5098C14.8111 21.3349 14.6578 20.2201 14.5578 19.1787C21.4767 9.00525 32.1884 3.11078 42.5602 3.60477C50.9789 4.89314 58.3977 9.30565 63.6436 15.634ZM16.3308 10.614C19.9969 7.69685 24.2496 5.52064 28.8956 4.3057C23.5031 6.7289 18.5105 10.6674 14.4911 15.8276C14.6378 13.4311 15.2643 11.6421 16.3308 10.614ZM12.0048 23.4777C12.7514 27.216 14.0379 31.2814 15.7976 35.4736C12.4381 37.9769 9.52521 40.5203 7.30555 42.9568C7.23889 37.523 8.31206 31.8221 10.665 26.3081C11.0783 25.3402 11.5249 24.399 12.0048 23.4777ZM11.3516 15.4605C11.2516 16.8957 11.3049 18.4911 11.4982 20.2201C10.5051 21.889 9.6052 23.6446 8.81199 25.4937C6.01241 32.0557 4.93924 38.8714 5.38584 45.2666C4.9859 45.8073 4.62596 46.348 4.30601 46.8687C3.56612 44.0249 3.15952 41.041 3.15952 37.9636C3.16618 29.3922 6.25238 21.5352 11.3516 15.4605ZM6.07907 50.36C6.33236 51.5883 6.65232 52.7898 7.01893 53.9647C6.61232 53.1637 6.21905 52.3559 5.87244 51.5215C5.87244 51.1744 5.93909 50.7872 6.07907 50.36ZM51.5788 69.6121C48.8859 70.3264 44.5665 68.4372 39.6739 64.2851C39.8072 65.2063 39.7339 66.1542 39.3606 67.0487C39.234 67.3558 39.1007 67.6428 38.9607 67.9232C41.147 69.6388 43.2667 70.9405 45.2664 71.8017C42.7468 72.4025 40.1205 72.7296 37.4209 72.7296C28.8289 72.7296 20.9701 69.492 14.9444 64.1716C11.0183 59.7457 8.4987 53.9314 7.63217 47.5296C9.43856 45.0196 12.6247 41.8754 17.1107 38.4642C18.5172 41.4882 20.1436 44.5523 21.97 47.5763C24.7495 52.1824 27.6958 56.2878 30.6753 59.7858C31.5618 59.1516 32.635 58.7844 33.7948 58.7844C33.8948 58.7844 33.9948 58.7978 34.0948 58.8045C30.9353 55.2731 27.7091 50.9541 24.6696 45.9007C22.7898 42.7833 21.1301 39.6391 19.717 36.5484C23.3964 33.9516 27.7758 31.2547 32.8483 28.5912C41.327 24.1586 49.5991 20.9344 56.1581 19.5258C62.8304 18.0906 66.0966 18.9384 66.8098 20.1266C69.9026 25.3469 71.6824 31.4483 71.6824 37.9702C71.6824 52.0155 63.4236 64.1382 51.5788 69.6121Z" fill="#0B80C3"/>
<path d="M56.4722 70.3598C56.2656 70.56 55.6523 71.3811 55.1857 71.4145C54.7125 71.4545 52.4995 71.8684 52.5328 72.6962C50.5664 73.604 46.887 74.5052 45.7138 75.0126C43.6475 74.1514 42.1144 73.6441 39.5481 73.5039C37.3418 72.2356 35.9887 71.8284 34.8488 71.6548L34.1223 71.4412L34.5156 70.1194C36.1286 69.7256 37.4351 68.1034 37.8217 66.3945C38.4016 63.8244 37.1485 61.6749 35.3754 60.8472C32.8825 59.679 30.0162 61.5014 29.8829 64.6923C29.8096 66.4079 30.2762 67.2223 30.4362 67.9032C30.4562 67.9699 30.4828 68.03 30.5028 68.0968C30.3495 68.6375 30.1496 69.2116 29.9296 69.7323C28.4632 69.1849 26.2168 68.9245 25.2103 68.7777C21.1776 66.3678 17.0316 66.2476 15.0919 65.5801C13.7521 63.9045 10.4192 62.5227 7.57301 59.8993C7.39304 59.739 7.93962 58.2437 6.45985 57.209C5.41334 56.1743 5.22671 55.647 4.54681 54.145C3.97356 53.5575 3.307 53.0902 2.63377 53.3306C2.70709 53.8446 3.15369 54.4988 3.31366 55.9607C3.5403 58.0234 4.58014 59.3585 5.59998 60.9874C7.49969 64.719 9.43273 67.022 12.3656 69.3117C16.3383 72.2089 18.698 73.1568 22.4374 74.4785C22.4774 76.835 22.944 79.6587 23.4572 82.0686C23.7505 83.4571 24.1705 84.4584 24.1438 85.4264C24.0705 87.5425 23.9372 87.2421 22.924 89.3716C20.2777 94.9189 20.9776 103.31 21.1243 107.249C21.1309 107.429 21.1376 107.596 21.1376 107.763C21.1176 108.143 20.951 108.55 20.1311 108.637C17.4182 108.797 13.892 110.58 10.8925 114.204C8.39955 117.215 6.05991 118.116 3.63362 117.823C1.51394 117.562 0.700731 118.73 1.5606 120.433C2.48712 122.262 2.20717 122.876 1.99387 124.618C1.84722 125.786 1.51394 126.567 2.46046 127.736C3.62028 129.164 6.88645 128.49 6.19989 128.123C4.18686 127.055 5.83328 124.485 6.48651 123.063C12.019 117.903 21.2909 114.945 22.4774 114.298C24.2505 113.423 26.5101 113.277 26.9834 111.18C26.9967 111.127 28.8498 103.931 30.0296 99.5784C30.2229 98.8508 30.7561 98.023 31.516 98.3968C31.7493 98.5103 31.9893 98.6839 32.3226 98.9643C34.3756 100.693 37.1485 102.162 38.8416 103.223C39.3348 103.537 39.2015 104.265 38.8682 104.572C36.182 107.055 35.5554 110.76 35.7154 112.956C35.8887 115.379 35.1221 121.134 33.9756 123.543C32.7425 126.107 33.0358 127.262 35.7754 126.901C38.8216 126.494 39.5348 127.489 41.3145 127.776C43.0942 128.069 45.1139 126.367 44.2474 126.027C43.4475 125.713 39.7214 125.266 38.2416 122.863C38.6283 118.383 46.1471 104.265 46.4937 102.148C45.7405 97.3087 37.7217 91.8816 36.5752 90.8335C36.4286 90.0992 36.2886 88.4971 36.3486 86.8149C36.6886 85.1994 38.5349 80.3997 38.5149 79.2248C40.8546 79.4918 45.1406 79.859 46.867 78.9311C49.4866 78.2769 52.8394 75.5466 53.686 74.4785C54.3792 73.8377 55.6123 73.7976 56.1722 73.2903C56.8988 72.6294 57.2254 72.1955 58.1119 70.3531C58.7252 69.0514 57.1788 69.6789 56.4722 70.3598Z" fill="#B22234"/>
<path d="M133.758 6.26831V42.5096C133.758 46.6484 132.831 50.2732 130.985 53.3907C129.139 56.5081 126.466 58.8979 122.973 60.5535C119.48 62.2157 115.347 63.0434 110.575 63.0434C103.383 63.0434 97.7967 61.201 93.8173 57.5094C89.8379 53.8179 87.8516 48.7712 87.8516 42.3561V6.26831H99.6698V40.5603C99.6698 44.8794 100.536 48.0436 102.269 50.0596C104.002 52.0756 106.875 53.0836 110.875 53.0836C114.754 53.0836 117.56 52.0689 119.313 50.0396C121.06 48.0102 121.933 44.826 121.933 40.4802V6.26831H133.758Z" fill="#B22234"/>
<path d="M178.289 46.7219C178.289 51.7819 176.469 55.7605 172.837 58.6777C169.204 61.5882 164.145 63.0435 157.666 63.0435C151.7 63.0435 146.421 61.922 141.828 59.6723V48.6377C145.601 50.3266 148.794 51.5082 151.413 52.2024C154.026 52.89 156.419 53.2372 158.586 53.2372C161.185 53.2372 163.185 52.7365 164.571 51.7418C165.964 50.7472 166.658 49.2652 166.658 47.296C166.658 46.2012 166.351 45.2199 165.738 44.3654C165.125 43.511 164.225 42.6832 163.038 41.8955C161.852 41.1011 159.439 39.8394 155.786 38.1038C152.367 36.495 149.807 34.953 148.094 33.471C146.387 31.989 145.021 30.2668 144.001 28.2975C142.981 26.3282 142.468 24.0318 142.468 21.4017C142.468 16.4485 144.148 12.55 147.501 9.71958C150.853 6.88249 155.493 5.46729 161.405 5.46729C164.311 5.46729 167.084 5.81441 169.724 6.50199C172.363 7.18956 175.123 8.16419 178.009 9.41251L174.183 18.6447C171.197 17.4164 168.731 16.562 166.778 16.0747C164.825 15.5873 162.905 15.347 161.019 15.347C158.772 15.347 157.052 15.8677 155.853 16.9158C154.653 17.9638 154.053 19.3323 154.053 21.0145C154.053 22.0626 154.293 22.9771 154.779 23.7515C155.266 24.5325 156.033 25.2868 157.092 26.0145C158.152 26.7421 160.659 28.0505 164.611 29.9397C169.837 32.443 173.423 34.953 175.363 37.4696C177.323 39.9863 178.289 43.0704 178.289 46.7219Z" fill="#B22234"/>
<path d="M305 114.678C305 119.738 303.18 123.717 299.548 126.634C295.915 129.545 290.856 131 284.377 131C278.411 131 273.132 129.879 268.539 127.629V116.594C272.312 118.283 275.505 119.465 278.124 120.159C280.737 120.847 283.13 121.194 285.296 121.194C287.896 121.194 289.896 120.693 291.282 119.698C292.675 118.704 293.369 117.222 293.369 115.253C293.369 114.158 293.062 113.176 292.449 112.322C291.835 111.467 290.936 110.64 289.749 109.852C288.563 109.058 286.15 107.796 282.497 106.06C279.077 104.452 276.518 102.903 274.805 101.428C273.098 99.9456 271.732 98.2233 270.712 96.254C269.692 94.2848 269.179 91.9884 269.179 89.3582C269.179 84.405 270.859 80.5065 274.212 77.6761C277.564 74.8457 282.204 73.4238 288.116 73.4238C291.022 73.4238 293.795 73.771 296.435 74.4585C299.074 75.1461 301.834 76.1207 304.72 77.3691L300.894 86.6013C297.908 85.373 295.442 84.5185 293.489 84.0312C291.536 83.5439 289.616 83.3036 287.729 83.3036C285.483 83.3036 283.763 83.8243 282.564 84.8723C281.364 85.9204 280.764 87.2888 280.764 88.9711C280.764 90.0191 281.004 90.9337 281.49 91.708C281.977 92.4891 282.744 93.2434 283.803 93.971C284.863 94.6986 287.369 96.007 291.322 97.8962C296.548 100.4 300.134 102.91 302.074 105.426C304.034 107.943 305 111.027 305 114.678Z" fill="#0B80C3"/>
</svg>
